<svg width="522" height="501" viewBox="0 0 522 501" fill="none" xmlns="http://www.w3.org/2000/svg">
<path d="M261 500.2C405.2 500.2 522 388.2 522 250.1C522 112 405.2 0 261 0C116.8 0 0 112 0 250.1C0 388.2 116.9 500.2 261 500.2Z" fill="#FF060A"/>
<path d="M407.8 205.2C393.4 192.4 373.4 172.9 357.2 159.1L356.2 158.5C354.6 157.3 352.8 156.3 350.9 155.6C311.7 148.6 129.3 115.9 125.8 116.3C124.8 116.4 123.8 116.8 123 117.3L122.1 118C121 119.1 120.1 120.4 119.6 121.9L119.4 122.5V125.8V126.3C139.9 181.1 221 360.5 237 402.7C238 405.6 239.8 411 243.2 411.3H244C245.8 411.3 253.6 401.4 253.6 401.4C253.6 401.4 392.9 239.6 407 222.4C408.8 220.3 410.4 218 411.8 215.6C412.2 213.7 412 211.8 411.3 210C410.6 208.2 409.3 206.5 407.8 205.2ZM289.2 224.1L348.6 176.9L383.5 207.7L289.2 224.1ZM266.1 221L163.8 140.6L329.4 169.9L266.1 221ZM275.3 242L380 225.8L260.3 364.1L275.3 242ZM149.9 148.7L257.6 236.2L242 364.2L149.9 148.7Z" fill="white"/>
</svg>
